# xmcd
#
# Track frame offsets:
#	150
#	31203
#	49694
#	73537
#	92957
#	111654
#
# Disc length: 1909 seconds
#
# Revision: 0
# Processed by: cddbd v1.5.1PL0 Copyright (c) Steve Scherf et al.
# Submitted via: audiograbber 1.82.01
#
DISCID=50077306
DTITLE=Dust21 - Extended Play2
DYEAR=1900
DGENRE=Drum and Bass
TTITLE0=Essance Of
TTITLE1=No Fool
TTITLE2=Raize 'EM Up
TTITLE3=Shine
TTITLE4=Skin
TTITLE5=Diceman
EXTD=
EXTT0=Copyright Dust21 2004-5
EXTT1=Copyright Dust21 2004-5
EXTT2=Copyright Dust21 2004-5
EXTT3=Copyright Dust21 2004-5
EXTT4=Copyright Dust21 2004-5
EXTT5=Copyright Dust21 2004-5
PLAYORDER=
